<svg viewBox="0 0 346 106" fill="none" xmlns="http://www.w3.org/2000/svg">
<path d="M100.4 53C100.4 40.4232 95.4068 28.3596 86.5154 19.4664C77.6241 10.5732 65.5631 5.57895 52.9889 5.57895C40.4147 5.57895 28.3536 10.5732 19.4623 19.4664C10.571 28.3596 5.57778 40.4232 5.57778 53C5.57778 59.2274 6.80654 65.3945 9.18917 71.1479C11.5718 76.9007 15.0601 82.1305 19.4623 86.5336C23.8645 90.9367 29.0932 94.4258 34.8448 96.8089C40.5969 99.192 46.7628 100.421 52.9889 100.421L55.3202 100.361C60.7498 100.094 66.0999 98.8941 71.133 96.8089C76.8846 94.4258 82.1133 90.9367 86.5154 86.5336C90.9176 82.1305 94.406 76.9007 96.7886 71.1479C99.1712 65.3945 100.4 59.2274 100.4 53ZM105.978 53C105.978 59.9601 104.61 66.8534 101.947 73.2836C99.284 79.7138 95.3795 85.5567 90.4591 90.4781C85.5387 95.3996 79.6971 99.3048 73.2682 101.968C67.6424 104.299 61.6617 105.636 55.5926 105.935L52.9889 106C46.0303 106 39.1384 104.632 32.7095 101.968C26.2807 99.3048 20.4391 95.3996 15.5186 90.4781C10.5982 85.5567 6.69375 79.7138 4.03082 73.2836C1.36787 66.8534 -9.82343e-08 59.9601 0 53C2.09414e-07 38.9435 5.5813 25.4613 15.5186 15.5219C25.456 5.58247 38.9354 0 52.9889 0C67.0424 0 80.5218 5.58247 90.4591 15.5219C100.396 25.4613 105.978 38.9435 105.978 53ZM72.5111 69.7368C72.5111 71.2774 71.2625 72.5263 69.7222 72.5263C68.1819 72.5263 66.9333 71.2774 66.9333 69.7368V42.9971L38.2274 71.7091C37.1382 72.7984 35.3728 72.7984 34.2837 71.7091C33.1946 70.6197 33.1946 68.854 34.2837 67.7646L62.9897 39.0526H36.2555C34.7153 39.0526 33.4667 37.8037 33.4667 36.2632C33.4667 34.7226 34.7153 33.4737 36.2555 33.4737H69.7222C71.2625 33.4737 72.5111 34.7226 72.5111 36.2632V69.7368Z" fill="currentColor"/>
<path d="M94.8222 83.6842L103.189 55.7895L100.4 30.6842L94.1303 20.3074H124.251C128.713 20.3074 132.55 21.081 135.763 22.6282C138.976 24.1754 141.445 26.407 143.17 29.323C144.955 32.1794 145.848 35.5714 145.848 39.499C145.848 42.3554 145.163 44.9143 143.795 47.1756C142.486 49.3774 140.791 51.1329 138.708 52.4421C136.626 53.7513 134.454 54.4654 132.193 54.5844L131.658 53.7811C135.525 53.7811 138.559 54.6737 140.761 56.459C143.022 58.2442 144.331 61.1006 144.688 65.0282L146.472 83.6842H138.708L137.102 65.8316C136.864 63.2132 135.912 61.2792 134.246 60.0295C132.64 58.7798 129.992 58.155 126.303 58.155H107.919V83.6842L94.8222 83.6842ZM107.919 50.6568H125.232C129.1 50.6568 132.164 49.6749 134.424 47.7112C136.685 45.7474 137.816 42.9505 137.816 39.3204C137.816 35.6309 136.656 32.8042 134.335 30.8404C132.015 28.8171 128.653 27.8055 124.251 27.8055H107.919V50.6568Z" fill="currentColor"/>
<path d="M171.547 84.7554C166.669 84.7554 162.772 83.6247 159.856 81.3634C157 79.102 155.573 75.9481 155.573 71.9015C155.573 67.8549 156.762 64.6712 159.142 62.3503C161.522 60.0295 165.3 58.393 170.476 57.4409L187.254 54.3166C187.254 50.3295 186.302 47.3541 184.399 45.3903C182.554 43.4265 179.758 42.4446 176.01 42.4446C172.737 42.4446 170.149 43.1885 168.245 44.6762C166.341 46.1044 165.032 48.1872 164.319 50.9246L156.376 50.2998C157.268 45.8366 159.41 42.2364 162.801 39.499C166.252 36.702 170.655 35.3036 176.01 35.3036C182.078 35.3036 186.719 37.0293 189.932 40.4808C193.144 43.8728 194.751 48.574 194.751 54.5844V74.1331C194.751 75.2042 194.929 75.9778 195.286 76.4539C195.703 76.8705 196.357 77.0787 197.25 77.0787H199.124V83.6842C198.886 83.7437 198.499 83.7735 197.964 83.7735C197.428 83.833 196.863 83.8627 196.268 83.8627C194.126 83.8627 192.371 83.5354 191.003 82.8809C189.694 82.1667 188.742 81.0956 188.147 79.6674C187.552 78.1797 187.254 76.2456 187.254 73.8653L188.147 74.0438C187.73 76.0671 186.719 77.9119 185.112 79.5781C183.506 81.1849 181.513 82.4643 179.133 83.4164C176.753 84.3091 174.225 84.7554 171.547 84.7554ZM172.261 78.1499C175.415 78.1499 178.092 77.5548 180.293 76.3646C182.554 75.115 184.28 73.4487 185.469 71.3659C186.659 69.2236 187.254 66.8432 187.254 64.2249V60.8329L171.904 63.6893C168.691 64.2844 166.46 65.2067 165.211 66.4564C164.021 67.6466 163.426 69.2236 163.426 71.1874C163.426 73.3892 164.2 75.115 165.746 76.3646C167.353 77.5548 169.524 78.1499 172.261 78.1499Z" fill="currentColor"/>
<path d="M207.242 83.6842V36.3747H214.739V83.6842H207.242ZM207.064 28.9659V20.2181H214.917V28.9659H207.064Z" fill="currentColor"/>
<path d="M245.383 84.7554C241.159 84.7554 237.559 84.071 234.585 82.7023C231.669 81.3336 229.379 79.4591 227.713 77.0787C226.106 74.6389 225.184 71.8717 224.946 68.7773L232.8 68.2417C233.276 71.0981 234.495 73.3892 236.459 75.115C238.422 76.7812 241.397 77.6143 245.383 77.6143C248.596 77.6143 251.154 77.1085 253.058 76.0969C255.022 75.0257 256.003 73.3297 256.003 71.0089C256.003 69.7592 255.706 68.7178 255.111 67.8846C254.516 67.0515 253.356 66.3374 251.63 65.7423C249.905 65.0877 247.346 64.4629 243.955 63.8678C239.433 63.0347 235.864 62.023 233.246 60.8329C230.688 59.5832 228.843 58.0657 227.713 56.2804C226.642 54.4357 226.106 52.2636 226.106 49.7642C226.106 45.5391 227.653 42.0876 230.747 39.4097C233.841 36.6723 238.244 35.3036 243.955 35.3036C247.822 35.3036 251.065 36.0177 253.683 37.4459C256.36 38.8146 258.443 40.6594 259.93 42.9802C261.477 45.2416 262.488 47.7409 262.964 50.4783L255.111 51.0139C254.754 49.3477 254.099 47.8897 253.147 46.64C252.195 45.3308 250.946 44.3192 249.399 43.6051C247.852 42.8314 246.008 42.4446 243.866 42.4446C240.475 42.4446 237.976 43.0992 236.369 44.4084C234.763 45.7176 233.96 47.3839 233.96 49.4072C233.96 50.9544 234.317 52.2338 235.031 53.2455C235.804 54.1976 237.024 55.001 238.69 55.6556C240.356 56.2507 242.587 56.7863 245.383 57.2623C250.202 58.0954 253.951 59.1071 256.628 60.2973C259.305 61.4874 261.179 62.9454 262.25 64.6712C263.321 66.3969 263.857 68.5095 263.857 71.0089C263.857 73.9248 263.024 76.4241 261.358 78.507C259.751 80.5303 257.55 82.0775 254.754 83.1486C252.017 84.2198 248.893 84.7554 245.383 84.7554Z" fill="currentColor"/>
<path d="M292.562 84.7554C288.1 84.7554 284.233 83.7437 280.96 81.7204C277.748 79.6971 275.249 76.8407 273.464 73.1512C271.738 69.4021 270.876 65.0282 270.876 60.0295C270.876 55.0307 271.738 50.6866 273.464 46.9971C275.249 43.3075 277.718 40.4511 280.871 38.4278C284.084 36.345 287.862 35.3036 292.205 35.3036C296.31 35.3036 299.94 36.2855 303.093 38.2493C306.246 40.1535 308.686 42.9505 310.411 46.64C312.196 50.3295 313.088 54.8225 313.088 60.1187V62.3503H278.729C279.027 67.4086 280.365 71.2171 282.745 73.776C285.185 76.3349 288.457 77.6143 292.562 77.6143C295.656 77.6143 298.185 76.9002 300.148 75.472C302.171 73.9843 303.569 72.0503 304.342 69.6699L312.374 70.2947C311.125 74.5199 308.745 78.0011 305.235 80.7385C301.784 83.4164 297.56 84.7554 292.562 84.7554ZM278.729 55.7448H304.878C304.521 51.1627 303.182 47.8004 300.862 45.6581C298.601 43.5158 295.715 42.4446 292.205 42.4446C288.576 42.4446 285.571 43.5753 283.191 45.8366C280.871 48.0385 279.384 51.3412 278.729 55.7448Z" fill="currentColor"/>
<path d="M323.243 83.6842V36.3747H329.847L330.204 48.336L329.49 48.0682C330.085 44.0216 331.364 41.0759 333.327 39.2312C335.35 37.3269 338.027 36.3747 341.359 36.3747H346V43.5158H341.449C339.069 43.5158 337.076 43.9621 335.469 44.8547C333.922 45.6879 332.732 46.9673 331.899 48.6931C331.126 50.3593 330.739 52.5016 330.739 55.12V83.6842H323.243Z" fill="currentColor"/>
</svg>
